Format : AVI
Format/Info : Audio Video Interleave
File size : 1.03 GiB
Duration : 1h 41mn
Overall bit rate : 1 456 Kbps
Movie name : A101122_00.Title1.DVDRip
Writing application : VirtualDubMod 1.5.10.2 (build 2542/release)
Writing library : VirtualDub build 32839/release
Original source form/Name : A101122_00

Video
ID : 0
Format : MPEG-4 Visual
Format profile : Advanced Simple@L5
Format settings, BVOP : Yes
Format settings, QPel : No
Format settings, GMC : No warppoints
Format settings, Matrix : Custom
Codec ID : XVID
Codec ID/Hint : XviD
Duration : 1h 41mn
Bit rate : 1 327 Kbps
Width : 720 pixels
Height : 306 pixels
Display aspect ratio : 2.35:1
Frame rate : 23.976 fps
Color space : YUV
Chroma subsampling : 4:2:0
Bit depth : 8 bits
Scan type : Progressive
Bits/(Pixel*Frame) : 0.251
Stream size : 963 MiB (91%)
Writing library : XviD 1.2.1 (UTC 2008-12-04)

Audio
ID : 1
Format : MPEG Audio
Format version : Version 1
Format profile : Layer 3
Mode : Joint stereo
Codec ID : 55
Codec ID/Hint : MP3
Duration : 1h 41mn
Bit rate mode : Variable
Bit rate : 117 Kbps
Channel(s) : 2 channels
Sampling rate : 48.0 KHz
Stream size : 84.7 MiB (8%)
Alignment : Aligned on interleaves
Interleave, duration : 24 ms (0.58 video frame)
Interleave, preload duration : 164 ms
 
http://www.imdb.com/title/tt1221208/


Users: 6.6/10 (154 votes) 5 reviews | Critics: 1 reviews

A drama centered on a young woman with multiple personality disorder who struggles to remain her true self and not give in to her racist alter-personality.
Director:
Geoffrey Sax
Writers:
Cheryl Edwards (screenplay), Marko King (screenplay), and 7 more credits »
Stars:
Halle Berry, Stellan Skarsgård and Phylicia Rashad
